<svg width="70" height="53" viewBox="0 0 70 53" fill="none" xmlns="http://www.w3.org/2000/svg">
<g id="logo">
<mask id="mask0_161_92" style="mask-type:alpha" maskUnits="userSpaceOnUse" x="0" y="0" width="70" height="53">
<path id="Clip 2" fill-rule="evenodd" clip-rule="evenodd" d="M0 0H70V53H0V0Z" fill="white"/>
</mask>
<g mask="url(#mask0_161_92)">
<path id="Fill 1" fill-rule="evenodd" clip-rule="evenodd" d="M57.8679 28.6963V23.1296C57.8679 22.6506 58.1523 22.544 58.4441 22.544C58.7356 22.544 59.02 22.6506 59.02 23.1296V28.6963C59.02 29.1752 58.7356 29.2818 58.4441 29.2818C58.1523 29.2818 57.8679 29.1752 57.8679 28.6963V28.6963ZM49.0143 22.6961H49.3461C49.7042 22.6961 49.8767 22.7891 49.8767 23.4014V28.4767C49.8767 29.0889 49.7042 29.182 49.3461 29.182H49.0143V22.6961ZM38.6669 26.6107L38.9947 22.931H39.0875L39.3617 26.6107H38.6669ZM34.2956 22.6961H34.6275C34.9856 22.6961 35.1581 22.7891 35.1581 23.4014V28.4767C35.1581 29.0889 34.9856 29.182 34.6275 29.182H34.2956V22.6961ZM15.6877 22.505H16.2437C16.5625 22.505 16.7746 22.7328 16.7746 23.0924V24.5147C16.7746 24.8608 16.6683 25.2831 16.1774 25.2831H15.6877V22.505ZM11.2333 26.6107L11.5611 22.931H11.6539L11.9285 26.6107H11.2333ZM65.2549 30.6774H63.5349L62.4162 25.2827V30.6774H61.0026V21.2006H62.9049L63.8242 26.0188V21.2006H65.2549V30.6774ZM60.4264 29.2668C60.4264 30.5044 59.2935 30.8636 58.4307 30.8636C57.5682 30.8636 56.4615 30.5044 56.4615 29.2668V22.6116C56.4615 21.3736 57.5682 21.014 58.4307 21.014C59.2935 21.014 60.4264 21.3736 60.4264 22.6116V29.2668ZM55.8602 24.4175H54.4538V23.0951C54.4538 22.6161 54.1694 22.5095 53.8907 22.5095C53.5992 22.5095 53.332 22.6161 53.332 23.0951V24.145C53.332 24.824 55.8426 26.0244 55.8426 26.9831V29.2668C55.8426 30.5044 54.7535 30.8636 53.8776 30.8636C53.0151 30.8636 51.9432 30.5044 51.9432 29.2668V27.2049H53.3496V28.8869C53.3496 29.3659 53.5992 29.4721 53.8907 29.4721C54.1694 29.4721 54.4362 29.3659 54.4362 28.8869V27.8888C54.4362 26.5574 51.9256 26.1888 51.9256 24.6449V22.6116C51.9256 21.3736 53.0151 21.014 53.8776 21.014C54.7535 21.014 55.8602 21.3736 55.8602 22.6116V24.4175ZM51.2828 28.9605C51.2828 29.8655 50.6995 30.6774 49.6114 30.6774H47.6078V21.2006H49.3061C50.6995 21.2006 51.2828 21.6799 51.2828 23.3436V28.9605ZM45.3662 30.6774H46.7727V21.2002H45.3662V30.6774ZM43.6485 30.6774H42.0748L40.7544 21.2006H42.1881L42.871 26.8994L43.5523 21.2006H44.9689L43.6485 30.6774ZM39.7771 30.6774L39.529 28.2124H38.4993L38.2116 30.6774H36.9383L38.0129 21.2006H40.122L41.1966 30.6774H39.7771ZM36.5645 28.9605C36.5645 29.8655 35.9809 30.6774 34.8928 30.6774H32.8892V21.2006H34.5875C35.9809 21.2006 36.5645 21.6799 36.5645 23.3436V28.9605ZM29.5584 26.5007H32.1326V25.3045H29.5584V26.5007ZM28.5475 30.6774H27.141V27.137L25.6949 21.2006H27.141L27.8994 24.5117L28.6803 21.2006H29.9936L28.5475 27.0702V30.6774ZM25.2852 30.6774H22.3525V21.2006H25.259V22.681H23.7586V24.9955H25.1924V26.4932H23.7586V29.1797H25.2852V30.6774ZM21.8811 30.6774H19.0465V21.2006H20.4526V29.1797H21.8811V30.6774ZM18.2327 24.1686C18.2327 24.8739 18.1047 25.4261 17.5996 25.8277C17.673 25.9114 18.2151 26.2744 18.2316 26.9163L18.2323 30.6774H16.8262L16.8266 27.5075C16.8266 26.9354 16.5849 26.753 15.6877 26.753V30.6774H14.2812V21.2006H16.6051C17.7328 21.2006 18.2327 21.6 18.2327 22.8244V24.1686ZM12.3438 30.6774L12.0961 28.2124H11.0665L10.7784 30.6774H9.50472L10.5793 21.2006H12.6888L13.7638 30.6774H12.3438ZM9.06883 30.6774H7.66237V26.6092H6.5515V30.6774H5.14504V21.2006H6.5515V24.9903H7.66237V21.2006H9.06883V30.6774ZM3.10962 32.0986H66.994V19.9319H3.10962V32.0986ZM48.8549 11.9426C49.2006 12.012 49.2006 12.3412 49.2006 12.6359C49.2006 12.9306 49.1486 13.2076 48.8377 13.2076H46.9201V11.544L48.8549 11.9426ZM42.2903 11.0759V14.6114C42.2903 14.9234 42.1522 15.1141 41.7721 15.1141H40.58C40.2171 15.1141 40.079 14.8716 40.079 14.5769V10.1401C40.079 9.75873 40.3555 9.65476 40.5976 9.75873L41.9105 10.279C42.2559 10.452 42.2903 10.6945 42.2903 11.0759V11.0759ZM28.4356 10.279L29.7485 9.75873C29.9902 9.65476 30.2667 9.75873 30.2667 10.1401V14.5769C30.2667 14.8716 30.1283 15.1141 29.7657 15.1141H28.5737C28.1935 15.1141 28.0555 14.9234 28.0555 14.6114V11.0759C28.0555 10.6945 28.0899 10.452 28.4356 10.279V10.279ZM1.555 33.6586H68.5142V18.546H1.555V33.6586ZM48.8219 39.6051C48.8219 39.6051 46.1022 39.667 45.6072 39.6051C45.1436 39.5428 44.9584 39.4497 44.9584 39.1085C44.9584 38.7984 44.9273 36.752 44.9584 36.163C45.0201 35.5737 45.9477 35.2685 46.3802 35.2066C46.782 35.1754 50.46 35.2066 50.46 35.2066V36.8143H46.5347C46.3802 36.8143 46.4112 38.1476 46.5347 38.1476H50.0582C50.5528 38.1476 50.4911 38.2714 50.4911 38.4884V40.473C50.4911 40.6899 50.182 40.938 50.0582 41.0623C49.9657 41.1554 44.8039 44.287 44.8039 44.287V42.8914C44.8039 42.8914 48.9147 40.2871 48.9454 40.101C49.0071 39.8221 48.8219 39.6051 48.8219 39.6051V39.6051ZM43.4775 39.485V40.9114H41.747V44.3535L43.8486 43.361V44.8805L41.0668 46.2761C40.7267 46.4311 40.2938 46.2761 40.2938 45.966V35.8259C40.2938 35.4228 40.6339 35.2066 40.9122 35.2066H44.1577V36.9734H41.747V39.485H43.4775ZM39.4923 45.3722V47.0467C39.4923 47.0467 36.7718 48.2558 36.3393 48.4731C36.092 48.5973 35.814 48.3796 35.814 48.0076V35.2066H37.6687V46.1162L39.4923 45.3722ZM32.5382 45.8377C32.631 46.0235 34.6709 46.9852 34.6709 46.9852V48.9078C34.6709 48.9078 31.3948 47.5122 31.0858 47.2021C30.7456 46.8613 30.7146 46.4889 30.7146 46.3339V36.5969C30.7146 36.008 31.8891 35.2066 32.1674 35.2066H34.5781V36.9689C34.5781 37.0309 33.1874 37.0309 32.8473 36.9689C32.6621 36.9381 32.4148 37.1859 32.4148 38.0545V45.2487C32.4148 45.4034 32.4148 45.6826 32.5382 45.8377V45.8377ZM24.746 35.2066H26.4151L27.3116 37.9978L28.7641 35.2066H30.3404L28.0839 40.1062V45.9672C28.0839 46.2464 26.5079 45.3778 26.4773 45.1609C26.4151 44.9439 26.4773 40.0443 26.4773 40.0443L24.746 35.2066ZM21.1002 39.5469C21.193 39.6092 24.8403 42.462 24.8403 42.462V44.1984C24.8403 44.1984 19.7095 40.3536 19.555 40.2605C19.3694 40.1366 19.1221 39.702 19.0603 39.3923C18.9986 39.0822 19.0603 36.6014 19.0603 36.3222C19.0603 36.0429 19.3694 35.2066 19.8019 35.2066H23.7893V36.8496H21.4093C21.0385 36.8184 20.8222 36.9426 20.8222 37.2835V39.113C20.8222 39.2373 20.9764 39.485 21.1002 39.5469V39.5469ZM56.836 38.5804C52.7592 42.7398 40.4401 51.4055 35.05 51.4055C29.6598 51.4055 17.3792 42.7398 13.3024 38.5804C15.41 37.6446 15.7554 36.2809 15.8935 35.2066H17.5865C17.4829 36.2114 17.2756 37.818 15.8935 38.7883C17.4829 40.3134 29.3837 49.8807 35.05 49.8807C40.7162 49.8807 52.6556 40.3134 54.2446 38.7883C52.8628 37.818 52.6556 36.2114 52.5519 35.2066H54.2446C54.3834 36.2809 54.7284 37.6446 56.836 38.5804V38.5804ZM22.5793 16.7743L21.2488 13.9181V16.7743H19.6253V10.764L21.2488 10.4693L22.5273 13.2076L23.9442 9.89762L25.4644 9.4986V16.7743H23.8402V13.8145L22.5793 16.7743ZM31.8906 8.73624V15.1141C31.8906 16.3967 30.975 16.7743 30.2667 16.7743H28.1419C26.7253 16.7743 26.4144 15.7207 26.4316 15.1835V10.8161C26.4144 9.776 26.7253 9.16941 27.4164 8.89239L30.2495 7.80045C31.1134 7.48853 31.8906 7.9735 31.8906 8.73624V8.73624ZM32.0978 8.82295V7.02045L35.0499 5.40863L38.1442 7.10716V8.90966L36.0022 7.74828V16.7743H34.2399V7.6443L32.0978 8.82295ZM43.9141 10.8161V15.1835C43.9317 15.7207 43.6204 16.7743 42.2042 16.7743H40.079C39.3707 16.7743 38.4552 16.3967 38.4552 15.1141V8.73624C38.4552 7.9735 39.2327 7.48853 40.0962 7.80045L42.9293 8.89239C43.6204 9.16941 43.9317 9.776 43.9141 10.8161V10.8161ZM50.8244 15.0795V16.7743H49.2006V15.4433C49.2006 15.0274 48.6996 14.837 48.4751 14.837H46.9201V16.7743H45.2963V9.62022L49.2006 10.4348C49.7536 10.556 50.8244 10.9201 50.8244 11.9944V13.1558C50.8244 13.5717 50.7724 13.9358 50.2542 14.1955C50.4963 14.3341 50.8244 14.8021 50.8244 15.0795V15.0795ZM13.4371 12.777L13.4397 8.61875C25.864 7.97275 31.9953 4.23224 35.05 1.9335C38.3261 4.26489 44.2176 7.97275 56.6422 8.61875L56.6358 12.777C54.945 13.3889 53.7253 14.881 53.668 16.7743H52.1766C52.2249 14.6306 53.393 12.8724 55.1164 11.8488L55.1209 9.96556C45.089 9.25612 38.539 6.13646 35.05 3.72887C32.0036 5.97243 25.8786 8.9791 14.9607 9.96556L14.9648 11.8488C16.6889 12.8724 17.8567 14.6306 17.9049 16.7743H16.4135C16.3567 14.881 15.1279 13.3889 13.4371 12.777V12.777ZM70 16.7743H55.1377C55.229 15.1782 56.5475 13.9159 58.1613 13.9159V7.24942C44.4323 6.76745 38.0073 2.27321 35.0499 0C32.0926 2.27321 25.6492 6.76745 11.9203 7.24942V13.9159C13.534 13.9159 14.8526 15.1782 14.9438 16.7743H0V35.2066H13.8895C13.8895 35.7959 13.5785 37.5406 9.84708 37.9565C12.4041 40.3134 27.3105 53 35.0499 53C42.7894 53 57.7347 40.3134 60.2914 37.9565C56.8016 37.5751 56.249 36.0388 56.249 35.2066H70V16.7743Z" fill="black"/>
</g>
</g>
</svg>
